<?xml version="1.0" encoding="UTF-8" standalone="no"?>
<svg
   viewBox="0 0 16 16"
   version="1.1"
   id="svg2"
   sodipodi:docname="StateMachine.svg"
   width="16"
   height="16"
   inkscape:version="1.3 (0e150ed6c4, 2023-07-21)"
   xmlns:inkscape="http://www.inkscape.org/namespaces/inkscape"
   xmlns:sodipodi="http://sodipodi.sourceforge.net/DTD/sodipodi-0.dtd"
   xmlns="http://www.w3.org/2000/svg"
   xmlns:svg="http://www.w3.org/2000/svg">
  <defs
     id="defs2" />
  <sodipodi:namedview
     id="namedview2"
     pagecolor="#ffffff"
     bordercolor="#000000"
     borderopacity="0.25"
     inkscape:showpageshadow="2"
     inkscape:pageopacity="0.0"
     inkscape:pagecheckerboard="0"
     inkscape:deskcolor="#d1d1d1"
     inkscape:zoom="28.963094"
     inkscape:cx="-0.81137741"
     inkscape:cy="8.303671"
     inkscape:window-width="1920"
     inkscape:window-height="1009"
     inkscape:window-x="3832"
     inkscape:window-y="-8"
     inkscape:window-maximized="1"
     inkscape:current-layer="svg2" />
  <g
     class=""
     transform="matrix(0.0316689,0,0,0.0316689,-0.30046819,-0.18458525)"
     id="g2">
    <path
       d="m 209.5,21.094 c -0.55,0.008 -1.115,0.033 -1.688,0.062 h -0.467 c -10.422,0 -19.238,3.402 -23.125,7.938 -3.646,4.252 -5.472,10.1 -0.095,22.156 5.748,8.803 10.352,20.848 14.344,36.375 l -18.126,4.656 c -6.755,-26.27 -15.17,-36.83 -20.875,-39.343 -2.854,-1.255 -5.655,-1.367 -9.845,-0.093 -4.19,1.274 -9.438,4.185 -15.156,8.406 -8.817,6.506 -14.327,14.915 -14,22.03 0.25,5.477 3.61,12.565 15.25,20.345 1.096,0.61 2.187,1.205 3.31,1.844 l -0.093,0.186 c 2.797,1.684 5.95,3.396 9.594,5.125 l -8.03,16.876 c -5.075,-2.408 -9.628,-4.944 -13.688,-7.594 -14.715,-8.047 -25.54,-11.577 -31.312,-11.093 -3.078,0.257 -4.93,1.067 -7.25,3.374 -2.32,2.306 -4.914,6.49 -7.28,13.094 -3.94,10.99 -4.602,19.98 -1.595,24.874 2.392,3.895 8.464,8.087 22.844,9.532 3.59,0.074 7.412,0.22 11.593,0.406 v 0.125 c 0.4,0 0.776,0.004 1.187,0 l 0.156,18.688 c -4.292,0.04 -8.302,-0.11 -12.094,-0.407 -11.966,-0.073 -19.223,0.894 -22.218,2.406 -1.876,0.947 -2.586,1.665 -3.625,3.782 -1.04,2.116 -2.022,5.81 -2.69,11.25 -0.615,5.033 -0.204,8.733 0.845,11.28 1.05,2.55 2.562,4.42 6.28,6.407 7.44,3.975 24.322,6.5 52.564,4.095 l 1.593,18.625 c -21.627,1.84 -37.814,1.534 -50.313,-1.563 -0.853,3.737 -0.672,6.658 0.03,9.125 0.12,0.412 0.257,0.82 0.407,1.22 0.012,0.03 0.02,0.062 0.032,0.093 1.71,3.198 3.952,5.995 6.874,8.438 0.018,0.013 0.044,0.017 0.062,0.03 7.05,5.22 18.622,8.188 25.47,8.188 h 103.81 c 12.11,0 22.62,-8.916 26.69,-25.092 l 8.06,-32.063 9.94,31.563 c 5.216,16.602 16.087,25.593 26.843,25.593 h 103.81 c 6.26,0 18.37,-3.946 25.595,-10.25 0.903,-0.787 1.747,-1.608 2.5,-2.436 0.142,-0.157 0.27,-0.31 0.406,-0.47 0.02,-0.022 0.046,-0.038 0.064,-0.06 1.5,-1.915 2.716,-4 3.75,-6.25 0.126,-0.346 0.274,-0.686 0.375,-1.033 0.612,-2.107 0.84,-4.314 0.436,-6.874 -12.646,3.365 -29.16,3.74 -51.437,1.844 l 1.592,-18.625 c 28.243,2.404 45.093,-0.12 52.532,-4.094 3.72,-1.986 5.232,-3.857 6.28,-6.405 1.05,-2.548 1.492,-6.248 0.876,-11.28 -0.667,-5.442 -1.68,-9.135 -2.72,-11.25 -1.038,-2.118 -1.748,-2.835 -3.624,-3.782 -2.995,-1.513 -10.252,-2.48 -22.22,-2.407 -3.79,0.296 -7.8,0.447 -12.092,0.406 l 0.187,-18.687 c 0.412,0.004 0.787,0 1.19,0 v -0.125 c 4.18,-0.185 8,-0.332 11.592,-0.406 14.38,-1.445 20.452,-5.637 22.844,-9.53 3.007,-4.897 2.345,-13.885 -1.594,-24.876 -2.366,-6.605 -4.992,-10.788 -7.312,-13.094 -2.32,-2.307 -4.172,-3.117 -7.25,-3.375 -5.772,-0.485 -16.57,3.045 -31.28,11.093 -4.066,2.654 -8.636,5.18 -13.72,7.593 l -8,-16.875 c 3.644,-1.728 6.797,-3.44 9.594,-5.124 l -0.125,-0.187 c 1.185,-0.676 2.343,-1.297 3.5,-1.94 11.52,-7.74 14.843,-14.796 15.092,-20.25 0.326,-7.115 -5.185,-15.524 -14,-22.03 -5.718,-4.22 -10.966,-7.132 -15.156,-8.406 -4.19,-1.274 -6.99,-1.162 -9.844,0.093 -1.98,0.872 -4.294,2.745 -6.75,5.876 -0.453,1.054 -0.944,2.124 -1.468,3.187 l -0.594,-0.28 c -4.042,6.21 -8.336,15.944 -12.094,30.56 l -18.094,-4.655 c 4.456,-17.33 9.653,-30.324 16.375,-39.313 3.834,-10.083 2.083,-15.33 -1.25,-19.218 -3.887,-4.536 -12.703,-7.938 -23.125,-7.938 h -0.46 c -9.16,-0.46 -15.315,1.746 -20.406,5.563 -5.092,3.816 -9.184,9.628 -12.282,16.905 -6.195,14.554 -7.937,34.38 -7.937,48.906 v 0.064 l -0.19,34.03 v 0.095 h -18.686 v -0.095 l -0.188,-34.03 v -0.064 c 0,-14.525 -1.71,-34.35 -7.906,-48.905 -3.098,-7.277 -7.19,-13.09 -12.28,-16.906 -4.775,-3.58 -10.477,-5.75 -18.72,-5.626 z m 48.78,239.47 c -8.486,12.207 -21.288,20.186 -36.092,20.186 H 181.53 l 98.126,80.625 -82.22,1.28 217.408,133.44 -72.564,-108.315 55.126,4.75 -76.03,-111.78 h -27.657 c -14.393,0 -26.788,-8.02 -35.44,-20.188 z"
       fill="#ffffff"
       fill-opacity="1"
       id="path2" />
  </g>
  <path
     d="M 0,0 H 512 V 512 H 0 Z"
     fill="#ffffff"
     fill-opacity="0"
     id="path1" />
</svg>
